<svg width="20" height="20" viewBox="0 0 20 20" fill="none" xmlns="http://www.w3.org/2000/svg">
<g clip-path="url(#clip0_112_102)">
<path d="M14.0577 20.0001H6.39811V17.8723H5.19069C3.95168 17.8674 2.84351 17.0997 2.40345 15.9416L1.95664 14.7448C1.92627 14.6635 1.87179 14.5934 1.80048 14.544C1.72918 14.4945 1.64447 14.4681 1.5577 14.4681H1.29173C1.10592 14.4684 0.922297 14.4281 0.753671 14.3501C0.585045 14.2721 0.435485 14.1582 0.315434 14.0163C0.195384 13.8745 0.107736 13.7082 0.0586113 13.529C0.00948654 13.3498 6.87672e-05 13.1621 0.0310156 12.9788C0.132146 12.3723 0.690656 11.915 1.33426 11.915H2.2917C2.70814 11.9144 3.11558 12.0361 3.46353 12.2649C3.81148 12.4937 4.08464 12.8196 4.24916 13.2022L4.75453 14.3777C4.82012 14.5308 4.92913 14.6612 5.06809 14.7529C5.20704 14.8446 5.36984 14.8936 5.53633 14.8937H6.39811C6.47259 13.851 6.81823 13.0267 7.40869 12.4468L7.5257 12.3351C4.82355 11.4415 2.99391 9.25003 2.99391 6.80858C2.99944 5.8097 3.29509 4.83395 3.84492 4V2.22876C3.84474 1.53663 4.00497 0.853877 4.31303 0.234083L4.43538 2.69417e-05H5.16935C5.61682 -0.00175874 6.0602 0.0852383 6.47382 0.255981C6.88744 0.426724 7.26308 0.677821 7.579 0.994733L7.78114 1.19683C9.38275 0.731362 11.0838 0.731362 12.6854 1.19683L12.8875 0.994733C13.2028 0.678468 13.5775 0.427745 13.9902 0.257022C14.4028 0.0862993 14.8451 -0.00104476 15.2917 2.69417e-05H16.0257L16.1427 0.234083C16.4508 0.853873 16.611 1.53663 16.6109 2.22876V4C17.1607 4.83395 17.4563 5.8097 17.4619 6.80858C17.4619 9.25007 15.6321 11.4415 12.93 12.3351L13.031 12.4362C13.355 12.754 13.6126 13.1331 13.7888 13.5513C13.965 13.9695 14.0564 14.4186 14.0577 14.8724V20.0001ZM7.24912 19.1489H13.2067V14.8723C13.2052 14.5323 13.1363 14.196 13.0039 13.8828C12.8715 13.5696 12.6782 13.2858 12.4353 13.0479L11.2545 11.8936L12.0099 11.7181C14.7172 11.0798 16.6109 9.06381 16.6109 6.80858C16.6049 5.93492 16.3341 5.08361 15.8342 4.3671L15.7599 4.2607V2.22876C15.76 1.75629 15.6678 1.28834 15.4885 0.851196H15.2917C14.9565 0.850856 14.6246 0.916952 14.3151 1.04566C14.0056 1.17437 13.7247 1.36315 13.4886 1.60108L12.914 2.17036L12.664 2.0851C11.0803 1.57288 9.37543 1.57288 7.79171 2.0851L7.54178 2.17032L6.96719 1.60104C6.73108 1.36312 6.45016 1.17435 6.14066 1.04564C5.83117 0.916941 5.49923 0.850851 5.16404 0.851196H4.96725C4.78798 1.28834 4.69582 1.75629 4.69593 2.22876V4.2607L4.62145 4.36714C4.12164 5.08369 3.85089 5.93496 3.84492 6.80858C3.84492 9.06381 5.73847 11.0798 8.44592 11.7129L9.20123 11.8883L8.00442 13.0586C7.56296 13.4894 7.30772 14.1277 7.24381 14.9627C7.20799 15.4036 6.84037 15.7433 6.39807 15.7447H5.53637C5.20334 15.7446 4.87767 15.6467 4.59971 15.4633C4.32174 15.2799 4.10368 15.0189 3.97254 14.7128L3.47263 13.5374C3.37368 13.3078 3.20954 13.1124 3.00057 12.9753C2.79159 12.8381 2.54696 12.7654 2.29701 12.766H1.33956C1.11081 12.766 0.908714 12.9202 0.876879 13.117C0.854937 13.2403 0.888448 13.367 0.968355 13.4633C1.00785 13.5109 1.05724 13.5493 1.11309 13.5759C1.16893 13.6024 1.22989 13.6165 1.29173 13.6171H1.55228C1.81239 13.6176 2.06619 13.6973 2.27997 13.8455C2.49374 13.9937 2.65736 14.2034 2.74908 14.4468L3.19605 15.6383C3.50946 16.4686 4.30326 17.0188 5.19073 17.0213H6.39815C6.86813 17.0213 7.24916 17.4023 7.24916 17.8723L7.24912 19.1489Z" fill="#F8F7F2"/>
</g>
<defs>
<clipPath id="clip0_112_102">
<rect width="20" height="20" fill="white"/>
</clipPath>
</defs>
</svg>
