<svg width="20" height="20" viewBox="0 0 20 20" fill="none" xmlns="http://www.w3.org/2000/svg">
<g clip-path="url(#clip0_105_68)">
<path d="M2.7 0.166687C1.96668 0.166687 1.3 0.433367 0.8 0.933367C0.26668 1.46669 0 2.13333 0 2.83333C0 3.56665 0.3 4.23333 0.8 4.73333C1.3 5.23333 2 5.53333 2.66668 5.50001H2.73336C3.40004 5.50001 4.03336 5.23333 4.53336 4.73333C5.03336 4.23333 5.33336 3.56665 5.33336 2.83333C5.36668 2.13333 5.06668 1.46665 4.56668 0.966648C4.06668 0.433328 3.4 0.166687 2.7 0.166687ZM4.06668 4.26669C3.7 4.63337 3.2 4.86669 2.66668 4.83337C2.16668 4.83337 1.63336 4.63337 1.26668 4.26669C0.86668 3.90001 0.66668 3.36669 0.66668 2.83337C0.66668 2.30005 0.86668 1.80005 1.26668 1.40005C1.63336 1.03337 2.13336 0.833367 2.7 0.833367C3.2 0.833367 3.7 1.03337 4.06668 1.40005C4.46668 1.80005 4.66668 2.30005 4.66668 2.83337C4.66668 3.36669 4.46668 3.90001 4.06668 4.26669ZM4 6.16669H1.3C0.76668 6.16669 0.33332 6.60001 0.33332 7.16669V18.8334C0.33332 19.3667 0.8 19.8334 1.33332 19.8334H4C4.53332 19.8334 5 19.3667 5 18.8667V7.16669C5 6.63333 4.53332 6.16669 4 6.16669ZM4.33332 18.8667C4.33332 19.0334 4.16664 19.1667 4 19.1667H1.33332C1.16664 19.1667 1 19 1 18.8334V7.16669C1 7.00001 1.13332 6.83337 1.3 6.83337H4C4.16668 6.83337 4.33332 7.00005 4.33332 7.16669V18.8667ZM15.3333 5.83333H14.6333C13.3333 5.83333 12.1 6.40001 11.3 7.30001V6.83333C11.3 6.50001 10.9667 6.16665 10.6333 6.16665H7.3C7 6.16665 6.63332 6.43333 6.63332 6.79997V19.2333C6.63332 19.6 7 19.8333 7.3 19.8333H10.9667C11.2667 19.8333 11.6334 19.6 11.6334 19.2333V12.0333C11.6334 10.9333 12.4334 10.0666 13.4667 10.0666C14 10.0666 14.5 10.2666 14.8667 10.6333C15.2 10.9333 15.3334 11.4 15.3334 12V19.1666C15.3334 19.5 15.6667 19.8333 16 19.8333H19.3334C19.6667 19.8333 20 19.5 20 19.1666V10.5666C20 7.90001 17.9667 5.83333 15.3333 5.83333ZM19.3333 19.1333L19.3 19.1666H16.0333L16 12C16 11.2 15.8 10.6 15.3667 10.1667C14.8667 9.66669 14.2 9.40001 13.5 9.40001C12.1 9.43333 11 10.5667 11 12.0333V19.1666H7.33332V6.83333H10.6333L10.6666 6.86665V8.96665L11.5666 8.06665L11.6 8.03333C12.2666 7.10001 13.4333 6.50001 14.6666 6.50001H15.3666C17.6 6.50001 19.3333 8.30001 19.3333 10.5667V19.1333Z" fill="#FAF9F6"/>
</g>
<defs>
<clipPath id="clip0_105_68">
<rect width="20" height="20" fill="white"/>
</clipPath>
</defs>
</svg>
