<svg width="21" height="20" viewBox="0 0 21 20" fill="none" xmlns="http://www.w3.org/2000/svg">
<g clip-path="url(#clip0_105_73)">
<path fill-rule="evenodd" clip-rule="evenodd" d="M3.01232 0.251651C3.68936 -0.195828 4.53391 -0.0327932 5.05739 0.487532L7.13155 2.55033C7.2937 2.7114 7.42233 2.90265 7.51009 3.11315C7.59785 3.32366 7.64302 3.54928 7.64302 3.77714C7.64302 4.005 7.59785 4.23063 7.51009 4.44113C7.42233 4.65164 7.2937 4.84288 7.13155 5.00395L5.73559 6.39149C5.63945 6.48716 5.58033 6.61346 5.56863 6.74818C5.55692 6.8829 5.59339 7.01741 5.67161 7.12804C7.04081 9.05324 7.99355 10.2743 9.0219 11.3022C10.0491 12.3267 11.1693 13.1754 12.8957 14.3351C13.119 14.4854 13.425 14.4577 13.6216 14.2623L15.6155 12.2804C15.7775 12.1192 15.9699 11.9914 16.1817 11.9042C16.3935 11.8169 16.6205 11.772 16.8497 11.772C17.079 11.772 17.306 11.8169 17.5177 11.9042C17.7295 11.9914 17.9219 12.1192 18.084 12.2804L20.186 14.3698C20.6921 14.8716 20.8584 15.6637 20.4815 16.3285C20.1713 16.8806 19.8124 17.4041 19.409 17.893C18.9518 18.4388 18.3736 18.9868 17.6919 19.3268C16.0377 20.1477 14.3975 20.024 13.9682 19.9743C13.9176 19.9684 13.8668 19.9641 13.8158 19.9616C13.0644 19.9211 9.16266 19.5025 4.80496 15.1711C2.41671 12.795 1.20805 10.5541 0.59848 8.88674C0.356547 8.2371 0.176987 7.56617 0.062201 6.88291C0.0209996 6.62752 -0.00579801 6.37004 -0.0180664 6.11167V6.0897L0.563581 6.08854H-0.0180664V6.06542C-0.0172924 5.99093 -0.0138002 5.91649 -0.00759668 5.84226C0.00287298 5.6931 0.0214857 5.48034 0.0610378 5.21209C0.137815 4.67557 0.290207 3.91821 0.593827 3.01516C1.03123 1.70856 2.26548 0.745382 3.01232 0.251651ZM1.14523 6.09086V6.11398L1.15221 6.22845C1.16035 6.33252 1.17664 6.49209 1.21037 6.70253C1.31384 7.31291 1.47509 7.91221 1.69198 8.49245C2.24571 10.006 3.36363 12.1 5.62857 14.3513C9.74547 18.4445 13.3552 18.7775 13.8775 18.8053C13.9531 18.8088 14.0276 18.8157 14.1032 18.8238C14.4452 18.8643 15.8155 18.9649 17.1708 18.2907C17.6524 18.0514 18.1096 17.6351 18.5144 17.1518C18.9157 16.6731 19.2414 16.1586 19.4683 15.7597C19.5625 15.592 19.5381 15.3596 19.3636 15.1861L17.2615 13.0967C17.2075 13.0429 17.1433 13.0002 17.0726 12.971C17.002 12.9419 16.9262 12.9269 16.8497 12.9269C16.7732 12.9269 16.6975 12.9419 16.6268 12.971C16.5561 13.0002 16.4919 13.0429 16.4379 13.0967L14.444 15.0786C14.1592 15.3627 13.7836 15.5393 13.382 15.5781C12.9804 15.617 12.5777 15.5156 12.2431 15.2914C10.4958 14.1177 9.30342 13.2205 8.19829 12.1174C7.09665 11.0178 6.09854 9.72966 4.7212 7.79521C4.48447 7.46174 4.3739 7.05584 4.40902 6.6492C4.44414 6.24256 4.62269 5.86133 4.91314 5.57284L6.3091 4.18531C6.36326 4.13161 6.40624 4.06781 6.43556 3.99757C6.46488 3.92733 6.47998 3.85203 6.47998 3.77599C6.47998 3.69994 6.46488 3.62464 6.43556 3.55441C6.40624 3.48417 6.36326 3.42037 6.3091 3.36666L4.23494 1.30502C4.05114 1.12233 3.81266 1.11077 3.65678 1.21367C2.93438 1.69122 2.00141 2.47171 1.69663 3.38054C1.4755 4.02971 1.31315 4.69723 1.21154 5.37512C1.17924 5.60024 1.1575 5.82673 1.14639 6.05386V6.08392L1.14523 6.09086Z" fill="#FAF9F6"/>
</g>
<defs>
<clipPath id="clip0_105_73">
<rect width="20.6667" height="20" fill="white"/>
</clipPath>
</defs>
</svg>
